REM MD5 efc6e5af33cfa835f751b8568948b53f
FILE "Euro Demo 13 (Europe).bin" BINARY
  TRACK 01 MODE2/2352
    INDEX 01 00:00:00
  TRACK 02 AUDIO
    INDEX 00 11:05:28
    INDEX 01 11:07:28
  TRACK 03 AUDIO
    INDEX 00 12:36:28
    INDEX 01 12:38:28
  TRACK 04 AUDIO
    INDEX 00 17:53:14
    INDEX 01 17:55:14
REM LEADOUT 23:10:00
